<?xml version="1.0" encoding="utf-8"?>
<!-- Generator: Adobe Illustrator 14.0.0, SVG Export Plug-In  -->
<!DOCTYPE svg PUBLIC "-//W3C//DTD SVG 1.1//EN" "http://www.w3.org/Graphics/SVG/1.1/DTD/svg11.dtd" [
	<!ENTITY ns_flows "http://ns.adobe.com/Flows/1.0/">
]>
<svg version="1.1"
	 xmlns="http://www.w3.org/2000/svg" xmlns:xlink="http://www.w3.org/1999/xlink" xmlns:a="http://ns.adobe.com/AdobeSVGViewerExtensions/3.0/"
	 x="0px" y="0px" width="15px" height="60px" viewBox="3.109 9 15 60" enable-background="new 3.109 9 15 60" xml:space="preserve">
<defs>
</defs>
<rect x="3.109" fill-rule="evenodd" clip-rule="evenodd" fill="#B83B3F" width="15" height="56"/>
<rect x="3.107" y="44.998" transform="matrix(-0.7071 -0.7071 0.7071 -0.7071 -19.0118 97.1251)" fill-rule="evenodd" clip-rule="evenodd" fill="#FFFFFF" width="15.004" height="15.004"/>
<g>
	<path fill="#FFFFFF" d="M14.342,32.118c0.137,0.34,0.238,0.669,0.305,0.987s0.1,0.649,0.1,0.993c0,0.55-0.081,1.038-0.243,1.461
		s-0.403,0.781-0.724,1.072s-0.718,0.512-1.192,0.662s-1.026,0.226-1.655,0.226c-0.645,0-1.218-0.082-1.72-0.246
		s-0.926-0.398-1.271-0.703s-0.609-0.675-0.791-1.11s-0.272-0.925-0.272-1.467c0-0.176,0.004-0.341,0.012-0.495
		s0.022-0.306,0.044-0.454s0.05-0.299,0.085-0.451s0.08-0.311,0.135-0.475h1.43c-0.156,0.332-0.268,0.648-0.334,0.949
		s-0.1,0.574-0.1,0.82c0,0.363,0.065,0.673,0.196,0.931s0.314,0.47,0.551,0.636s0.518,0.288,0.844,0.366s0.685,0.117,1.075,0.117
		c0.414,0,0.784-0.04,1.11-0.12s0.603-0.204,0.829-0.372s0.399-0.383,0.519-0.645s0.179-0.572,0.179-0.931
		c0-0.129-0.013-0.269-0.038-0.419s-0.059-0.303-0.1-0.457s-0.09-0.307-0.146-0.457s-0.114-0.29-0.173-0.419H14.342z"/>
	<path fill="#FFFFFF" d="M10.779,25.022c0.695,0,1.295,0.081,1.799,0.243s0.918,0.385,1.242,0.668s0.564,0.615,0.721,0.996
		s0.234,0.788,0.234,1.222c0,1.008-0.335,1.766-1.005,2.273s-1.644,0.762-2.921,0.762c-0.695,0-1.295-0.081-1.799-0.243
		s-0.918-0.385-1.242-0.668s-0.564-0.615-0.721-0.996s-0.234-0.788-0.234-1.222c0-1.008,0.334-1.766,1.002-2.273
		S9.498,25.022,10.779,25.022z M10.85,26.546c-0.906,0-1.582,0.121-2.027,0.363s-0.668,0.641-0.668,1.195
		c0,0.277,0.058,0.514,0.173,0.709s0.284,0.356,0.507,0.483s0.497,0.22,0.823,0.278s0.7,0.088,1.122,0.088
		c0.906,0,1.582-0.122,2.027-0.366s0.668-0.642,0.668-1.192c0-0.277-0.058-0.515-0.173-0.712s-0.284-0.358-0.507-0.483
		s-0.497-0.217-0.823-0.275S11.271,26.546,10.85,26.546z"/>
	<path fill="#FFFFFF" d="M10.715,18.519c0.594,0,1.133,0.073,1.617,0.22s0.897,0.375,1.239,0.686s0.605,0.708,0.791,1.192
		s0.278,1.064,0.278,1.74v1.945H6.982v-2.268c0-0.586,0.073-1.099,0.22-1.538s0.372-0.806,0.677-1.099s0.691-0.513,1.16-0.659
		S10.066,18.519,10.715,18.519z M10.809,20.065c-0.414,0-0.783,0.033-1.107,0.1s-0.599,0.179-0.823,0.337s-0.396,0.37-0.513,0.636
		s-0.176,0.596-0.176,0.99v0.732h5.244v-0.633c0-0.707-0.211-1.244-0.633-1.611S11.715,20.065,10.809,20.065z"/>
	<path fill="#FFFFFF" d="M14.641,17.13H6.982v-4.611h1.219v3.146h1.904v-3h1.189v3h2.127v-3.146h1.219V17.13z"/>
</g>
</svg>
